<svg width="32" height="29" viewBox="0 0 32 29" fill="none" xmlns="http://www.w3.org/2000/svg">
<path d="M0.169735 2.654C-1.41449 5.9305 8.41913 28.7355 15.9937 28.9975C23.5682 29.26 33.4683 6.7825 31.8176 2.654C31.2683 1.28 27.7553 0.457499 23.2536 0.0924988C25.4585 0.467499 27.0462 1.086 27.3516 1.9855C28.5306 5.459 21.4638 24.502 16.0536 24.2815C10.6433 24.061 3.61498 4.742 4.74653 1.9855C5.05173 1.242 6.75113 0.647 9.09348 0.2425C4.40609 0.693 0.712585 1.531 0.169735 2.654Z" fill="#4CAE00"/>
<path d="M20.9612 17.6435C21.3169 16 21.5172 14.144 21.5172 12.1785C21.5172 5.4525 19.1706 0 16.2758 0C13.3811 0 11.0345 5.4525 11.0345 12.1785C11.0345 14.144 11.2347 16 11.5905 17.6435C11.6965 9.946 13.7537 3.806 16.2758 3.806C18.798 3.806 20.8551 9.946 20.9612 17.6435Z" fill="#4CAE00"/>
</svg>
