<svg width="135" height="32" viewBox="0 0 135 32" fill="none" xmlns="http://www.w3.org/2000/svg">
<path d="M124.696 7.57449C127.708 7.57449 130.094 8.41249 131.856 10.0885C133.617 11.7365 134.498 13.967 134.498 16.7795C134.498 17.6885 134.427 18.4985 134.285 19.2085C134.114 20.061 133.93 20.8 133.731 21.425H116.471C116.443 21.6235 116.428 21.908 116.428 22.277C116.428 23.7545 116.854 24.9195 117.707 25.772C118.588 26.5955 119.738 27.0075 121.159 27.0075C122.352 27.0075 123.375 26.752 124.227 26.2405C125.108 25.7005 125.818 25.0045 126.358 24.1525H132.793C131.742 26.425 130.108 28.3005 127.892 29.778C125.705 31.2265 123.219 31.951 120.434 31.951C117.423 31.951 115.008 31.099 113.189 29.394C111.371 27.6895 110.462 25.374 110.462 22.4475C110.462 21.5955 110.547 20.7005 110.718 19.763C111.144 17.3195 112.01 15.1745 113.317 13.3275C114.653 11.481 116.3 10.0605 118.261 9.06599C120.221 8.07149 122.366 7.57449 124.696 7.57449ZM128.361 17.8025C128.418 17.348 128.446 17.021 128.446 16.822C128.446 15.4585 128.006 14.393 127.125 13.626C126.244 12.859 125.094 12.4755 123.673 12.4755C122.167 12.4755 120.818 12.9585 119.625 13.924C118.431 14.862 117.593 16.1545 117.11 17.8025H128.361Z" fill="#4CAE00"/>
<path d="M105.889 12.048C106.863 10.626 108 9.51699 109.3 8.72049C110.599 7.92449 112.007 7.52649 113.522 7.52649L112.467 13.7965H110.964C109.286 13.7965 107.933 14.1805 106.904 14.9485C105.903 15.716 105.172 17.024 104.712 18.8725L102.6 31.4985H96.8755L100.911 7.85949H106.904L105.889 12.048Z" fill="#4CAE00"/>
<path d="M73.493 19.6775C73.9195 17.291 74.7575 15.1745 76.0075 13.3275C77.286 11.481 78.8345 10.0605 80.653 9.06599C82.471 8.07149 84.389 7.57449 86.406 7.57449C88.1675 7.57449 89.645 7.9295 90.838 8.6395C92.06 9.35 92.955 10.245 93.523 11.3245L94.1195 7.95799H100.128L95.9525 31.5675H89.9435L90.5825 28.1155C89.645 29.2235 88.4235 30.147 86.9175 30.886C85.44 31.596 83.8205 31.951 82.059 31.951C80.326 31.951 78.792 31.5675 77.4565 30.8005C76.121 30.005 75.084 28.897 74.3455 27.4765C73.6065 26.0275 73.2375 24.351 73.2375 22.4475C73.2375 21.567 73.3225 20.6435 73.493 19.6775ZM92.0315 19.763C92.145 19.024 92.202 18.4845 92.202 18.1435C92.202 16.467 91.705 15.16 90.7105 14.2225C89.7445 13.285 88.5225 12.816 87.0455 12.816C85.9375 12.816 84.8575 13.086 83.8065 13.626C82.7835 14.1655 81.8885 14.9615 81.1215 16.0125C80.3545 17.0355 79.843 18.257 79.5875 19.6775C79.502 20.2175 79.4595 20.729 79.4595 21.2115C79.4595 22.9165 79.9425 24.266 80.9085 25.2605C81.8745 26.2265 83.096 26.7095 84.5735 26.7095C85.6815 26.7095 86.761 26.4395 87.8125 25.8995C88.8635 25.3315 89.7585 24.5215 90.4975 23.4705C91.2645 22.419 91.776 21.1835 92.0315 19.763Z" fill="#4CAE00"/>
<path d="M67.307 24.1585C67.279 24.329 67.2645 24.5565 67.2645 24.8405C67.2645 25.4085 67.421 25.8205 67.7335 26.0765C68.0745 26.3035 68.6285 26.417 69.3955 26.417H72.208L71.313 31.446H67.5205C63.2585 31.446 61.1275 29.6705 61.1275 26.119C61.1275 25.437 61.1845 24.7695 61.298 24.116L63.301 12.737H60.4885L61.341 7.836H64.196L65.219 1.9975H71.228L70.205 7.836H75.447L74.5945 12.737H69.31L67.307 24.1585Z" fill="#4CAE00"/>
<path d="M63.092 0L57.509 31.5365H51.5L57.083 0H63.092Z" fill="#4CAE00"/>
<path d="M39.0856 31.93C37.0684 31.93 35.2785 31.518 33.7158 30.694C32.1816 29.87 30.9883 28.705 30.136 27.1995C29.2837 25.6935 28.8575 23.9605 28.8575 22C28.8575 19.3295 29.4825 16.9005 30.7326 14.7125C32.0111 12.4965 33.7442 10.7495 35.9319 9.47101C38.148 8.19251 40.6056 7.55301 43.3045 7.55301C45.322 7.55301 47.112 7.979 48.6745 8.8315C50.2655 9.6555 51.487 10.8205 52.3395 12.326C53.22 13.832 53.6605 15.565 53.6605 17.5255C53.6605 20.2245 53.0215 22.668 51.743 24.8555C50.4645 27.043 48.703 28.7765 46.4585 30.055C44.2425 31.305 41.7847 31.93 39.0856 31.93ZM39.8953 26.816C41.3159 26.816 42.6085 26.404 43.7735 25.58C44.9385 24.756 45.8475 23.662 46.501 22.2985C47.1545 20.9345 47.481 19.5 47.481 17.994C47.481 16.2895 46.998 14.9825 46.032 14.0735C45.0945 13.136 43.9015 12.667 42.4523 12.667C41.0033 12.667 39.7106 13.079 38.5742 13.903C37.4661 14.727 36.5996 15.835 35.9745 17.227C35.3495 18.591 35.037 20.04 35.037 21.574C35.037 23.2505 35.4773 24.543 36.3581 25.452C37.2672 26.3615 38.4463 26.816 39.8953 26.816Z" fill="#4CAE00"/>
<path d="M0.169735 5.654C-1.41449 8.9305 8.41913 31.7355 15.9937 31.9975C23.5682 32.26 33.4683 9.7825 31.8176 5.654C31.2683 4.28 27.7553 3.4575 23.2536 3.0925C25.4585 3.4675 27.0462 4.086 27.3516 4.9855C28.5306 8.459 21.4638 27.502 16.0536 27.2815C10.6433 27.061 3.61498 7.742 4.74653 4.9855C5.05173 4.242 6.75113 3.647 9.09348 3.2425C4.40609 3.693 0.712585 4.531 0.169735 5.654Z" fill="#4CAE00"/>
<path d="M20.9612 20.6435C21.3169 19 21.5172 17.144 21.5172 15.1785C21.5172 8.4525 19.1706 3 16.2758 3C13.3811 3 11.0345 8.4525 11.0345 15.1785C11.0345 17.144 11.2347 19 11.5905 20.6435C11.6965 12.946 13.7537 6.806 16.2758 6.806C18.798 6.806 20.8551 12.946 20.9612 20.6435Z" fill="#4CAE00"/>
</svg>
